Coordinates
version=1
nRows=9
nColumns=36
inDegrees=yes

Units are S.I. units (second, meters, Newtons, ...)
If the header above contains a line with 'inDegrees', this indicates whether rotational values are in degrees (yes) or radians (no).

endheader
time	pelvis_tilt	pelvis_list	pelvis_rotation	pelvis_tx	pelvis_ty	pelvis_tz	hip_flexion_r	hip_adduction_r	hip_rotation_r	knee_angle_r	knee_angle_r_beta	ankle_angle_r	subtalar_angle_r	mtp_angle_r	hip_flexion_l	hip_adduction_l	hip_rotation_l	knee_angle_l	knee_angle_l_beta	ankle_angle_l	subtalar_angle_l	mtp_angle_l	lumbar_extension	lumbar_bending	lumbar_rotation	arm_flex_r	arm_add_r	arm_rot_r	elbow_flex_r	pro_sup_r	arm_flex_l	arm_add_l	arm_rot_l	elbow_flex_l	pro_sup_l
      3.45000000	     19.63777920	      0.90602672	      3.14127045	     -0.59704032	      0.58752392	     -0.62250746	     64.37875012	     -8.71358288	      5.80841307	     89.57745931	      1.56342160	     10.75509817	     -2.79168450	     -7.49997543	     65.09122559	     -4.43825721	      1.35103544	     88.22653462	      1.53984352	      5.74161851	     -3.83421122	     -7.49997543	    -45.89437998	      0.05283935	     -0.62878197	      2.22324422	     -8.46298814	    -14.88616746	    118.21995414	     92.85320038	      6.13420999	     -5.87010910	    -12.43080158	    115.60416642	     93.54869324
      3.46000000	     18.64006633	      1.02444234	      2.98746421	     -0.59570075	      0.58663197	     -0.62222384	     65.51473512	     -8.54319498	      6.15106242	     89.64117891	      1.56453372	     10.69741403	     -2.83276662	     -7.49997563	     66.08331089	     -4.43352246	      1.24524837	     88.20336627	      1.53943915	      5.67676350	     -3.82567517	     -7.49997563	    -46.38381086	     -0.13807205	     -0.58090184	      2.17840652	     -8.57734693	    -14.94180206	    118.47833764	     93.02968091	      6.48380369	     -5.76990525	    -12.82019277	    115.71279712	     93.60512370
      3.47000000	     17.99393858	      1.02642996	      2.96930718	     -0.59462247	      0.58658646	     -0.62219870	     66.13008935	     -8.49998246	      6.21583556	     89.61147441	      1.56401528	     10.71439145	     -2.85256895	     -7.49997568	     66.68236692	     -4.38178972	      1.33960306	     88.16567644	      1.53878134	      5.68794364	     -3.80665774	     -7.49997568	    -47.34508906	     -0.11772282	     -0.59680610	      2.43374632	     -8.73117627	    -15.00884880	    118.45935447	     93.06424289	      6.96480919	     -5.90922866	    -12.93960566	    115.75122235	     93.61847282
      3.48000000	     16.96820331	      0.96854948	      2.97316108	     -0.59324746	      0.58602054	     -0.62231423	     67.16767178	     -8.43231018	      6.28074717	     89.56589730	      1.56321981	     10.63066709	     -2.90274416	     -7.49997586	     67.70924229	     -4.29571622	      1.49583882	     88.13105634	      1.53817711	      5.62563599	     -3.68693599	     -7.49997586	    -48.03567646	      0.00130411	     -0.58274930	      2.47362338	     -8.85935595	    -15.16031819	    118.81651382	     93.22589703	      7.26722702	     -5.85546798	    -13.24317242	    116.14644794	     93.70032129
      3.49000000	     16.04420809	      0.87852131	      2.98249437	     -0.59198163	      0.58565951	     -0.62234519	     68.04595582	     -8.33587062	      6.27904031	     89.50310165	      1.56212381	     10.54017003	     -2.97142099	     -7.49997605	     68.63681632	     -4.24102220	      1.58535462	     88.11159151	      1.53783738	      5.66251142	     -3.69365295	     -7.49997605	    -48.94348831	      0.14148571	     -0.56411321	      2.67202477	     -9.01935736	    -15.28268680	    119.15722965	     93.38690870	      7.63516772	     -5.90673296	    -13.53306807	    116.48041321	     93.76771833
      3.50000000	     15.02087843	      0.80287459	      2.96156585	     -0.59053106	      0.58520270	     -0.62240883	     69.04130650	     -8.22904044	      6.33120856	     89.43927408	      1.56100981	     10.44992742	     -3.04926141	     -7.49997623	     69.64118165	     -4.18281732	      1.67278075	     88.08861173	      1.53743631	      5.73852246	     -3.76511386	     -7.49997623	    -49.83286426	      0.27634749	     -0.52369143	      2.82287638	     -9.24219666	    -15.44014684	    119.59211336	     93.55503973	      7.98283211	     -5.88652761	    -13.88991515	    116.89944851	     93.84361370
      3.51000000	     14.16753765	      0.76403000	      2.93363004	     -0.58906129	      0.58522041	     -0.62251781	     69.81199753	     -8.15211100	      6.41591407	     89.36383436	      1.55969314	     10.46503709	     -3.07825202	     -7.49997628	     70.39138094	     -4.11912178	      1.74339062	     88.03362458	      1.53647660	      5.79463038	     -3.78774849	     -7.49997628	    -50.94680637	      0.37188430	     -0.51112305	      3.14111761	     -9.50606049	    -15.56472082	    119.73483393	     93.59992490	      8.51748731	     -6.06337427	    -14.10762903	    117.05958993	     93.86706840
      3.52000000	     12.68460982	      0.65929116	      2.87402893	     -0.58721159	      0.58400595	     -0.62258486	     71.33404345	     -7.92932211	      6.55638195	     89.32136912	      1.55895198	     10.34807285	     -3.16507291	     -7.49997646	     71.90273215	     -4.05382849	      1.88453779	     88.01992856	      1.53623756	      5.79568141	     -3.78057070	     -7.49997646	    -51.57872388	      0.50924043	     -0.43114254	      3.04595020	     -9.67629030	    -15.82459813	    120.67110114	     93.81001214	      8.77712315	     -6.04390456	    -14.70850286	    117.87419060	     93.99897246
      3.53000000	     11.37877605	      0.55643389	      2.84858036	     -0.58541139	      0.58333568	     -0.62259679	     72.59307207	     -7.77502141	      6.61077754	     89.24432774	      1.55760736	     10.29877732	     -3.27464244	     -7.49997661	     73.16848385	     -3.99950475	      2.02038370	     87.95674659	      1.53513483	      5.80339381	     -3.79438330	     -7.49997661	    -52.44624610	      0.64524968	     -0.36651814	      3.11679434	     -9.87833737	    -16.05474160	    121.23308022	     93.97283006	      9.15886036	     -6.22188697	    -15.08679038	    118.38319569	     94.08640168
